<?xml version="1.0" encoding="UTF-8"?>
<svg id="Camada_2" data-name="Camada 2" xmlns="http://www.w3.org/2000/svg" viewBox="0 0 27.52 27.52">
  <defs>
    <style>
      .cls-1 {
        fill: #fff;
      }
    </style>
  </defs>
  <g id="ELEMENTS">
    <g>
      <path class="cls-1" d="M21.05,4.91c-.89,0-1.61.72-1.61,1.61s.72,1.61,1.61,1.61,1.61-.72,1.61-1.61-.72-1.61-1.61-1.61Z"/>
      <path class="cls-1" d="M13.87,6.98c-3.74,0-6.78,3.04-6.78,6.78s3.04,6.78,6.78,6.78,6.78-3.04,6.78-6.78-3.04-6.78-6.78-6.78ZM13.87,18.1c-2.39,0-4.34-1.95-4.34-4.34s1.95-4.34,4.34-4.34,4.34,1.95,4.34,4.34-1.95,4.34-4.34,4.34Z"/>
      <path class="cls-1" d="M19.25,27.52h-10.99c-4.56,0-8.27-3.71-8.27-8.27v-10.99C0,3.71,3.71,0,8.27,0h10.99c4.56,0,8.27,3.71,8.27,8.27v10.99c0,4.56-3.71,8.27-8.27,8.27ZM8.27,2.59c-3.13,0-5.68,2.55-5.68,5.68v10.99c0,3.13,2.55,5.68,5.68,5.68h10.99c3.13,0,5.68-2.55,5.68-5.68v-10.99c0-3.13-2.55-5.68-5.68-5.68h-10.99Z"/>
    </g>
  </g>
</svg>