<?xml version="1.0" encoding="UTF-8"?>
<svg id="Camada_2" data-name="Camada 2" xmlns="http://www.w3.org/2000/svg" viewBox="0 0 23.65 30.54">
  <defs>
    <style>
      .cls-1 {
        fill: #fff;
        fill-rule: evenodd;
      }
    </style>
  </defs>
  <g id="ELEMENTS">
    <path class="cls-1" d="M9.89,19.92c-.03.09-.05.16-.07.24-1.12,4.4-1.25,5.37-2.4,7.41-.55.97-1.17,1.89-1.85,2.77-.08.1-.15.23-.3.2-.17-.04-.18-.19-.2-.32-.18-1.34-.29-2.67-.24-4.02.06-1.76.28-2.36,2.54-11.88.03-.15,0-.27-.05-.4-.54-1.46-.65-2.95-.18-4.45,1.02-3.25,4.71-3.5,5.35-.82.4,1.66-.65,3.83-1.46,7.03-.67,2.65,2.45,4.53,5.11,2.59,2.45-1.78,3.41-6.05,3.23-9.07-.36-6.03-6.97-7.33-11.17-5.39-4.81,2.22-5.9,8.19-3.73,10.91.28.35.49.56.4.91-.14.55-.26,1.1-.41,1.64-.11.4-.45.55-.86.38-.8-.32-1.47-.83-2.01-1.5-1.84-2.28-2.37-6.8.07-10.63C4.35,1.28,9.37-.43,13.96.09c5.48.62,8.94,4.37,9.59,8.61.3,1.94.08,6.71-2.63,10.08-3.12,3.88-8.19,4.13-10.53,1.75-.18-.18-.32-.4-.5-.61Z"/>
  </g>
</svg>