<?xml version="1.0" encoding="UTF-8"?>
<svg id="Camada_2" data-name="Camada 2" xmlns="http://www.w3.org/2000/svg" viewBox="0 0 27.36 27.43">
  <defs>
    <style>
      .cls-1, .cls-2 {
        fill: #fff;
      }

      .cls-2 {
        fill-rule: evenodd;
      }
    </style>
  </defs>
  <g id="ELEMENTS">
    <g>
      <path class="cls-1" d="M0,27.43l1.97-7.34c-1.11-2.01-1.7-4.26-1.7-6.54C.27,6.08,6.34,0,13.81,0s13.55,6.08,13.55,13.55-6.08,13.55-13.55,13.55c-2.24,0-4.46-.57-6.44-1.64l-7.37,1.98ZM7.74,22.7l.46.28c1.7,1.02,3.64,1.55,5.61,1.55,6.06,0,10.99-4.93,10.99-10.99S19.87,2.56,13.81,2.56,2.83,7.49,2.83,13.55c0,2,.56,3.97,1.61,5.7l.28.47-1.1,4.1,4.12-1.1Z"/>
      <path class="cls-2" d="M18.85,15.43c-.56-.33-1.28-.71-1.94-.44-.5.21-.83,1-1.15,1.4-.17.21-.37.24-.62.14-1.89-.75-3.34-2.02-4.38-3.76-.18-.27-.15-.48.07-.73.32-.37.71-.79.8-1.29.09-.5-.15-1.09-.36-1.53-.26-.57-.56-1.38-1.13-1.7-.52-.3-1.21-.13-1.68.25-.81.66-1.2,1.69-1.18,2.7,0,.29.04.58.11.86.16.67.47,1.3.82,1.9.26.45.55.89.86,1.31,1.01,1.37,2.27,2.57,3.73,3.46.73.45,1.51.84,2.32,1.11.91.3,1.72.61,2.71.43,1.03-.2,2.05-.83,2.45-1.83.12-.29.18-.62.11-.93-.14-.64-1.01-1.02-1.53-1.33Z"/>
    </g>
  </g>
</svg>